<svg version="1.1" id="Layer_1" xmlns="http://www.w3.org/2000/svg" xmlns:xlink="http://www.w3.org/1999/xlink" x="0px" y="0px"
	 width="100%" viewBox="0 0 755 330" enable-background="new 0 0 755 330" xml:space="preserve">
<path fill="#000000" opacity="1.000000" stroke="none" 
	d="
M515.000000,331.000000 
	C343.372772,331.000000 172.245529,331.000000 1.059148,331.000000 
	C1.059148,221.064804 1.059148,111.129562 1.059148,1.097159 
	C252.543884,1.097159 504.087830,1.097159 755.815918,1.097159 
	C755.815918,110.999748 755.815918,220.999847 755.815918,331.000000 
	C675.796265,331.000000 595.648132,331.000000 515.000000,331.000000 
M429.011719,309.023834 
	C429.011719,309.023834 429.020416,309.090851 429.640900,308.987671 
	C430.106323,308.662659 430.571747,308.337616 430.990509,307.995575 
	C430.990509,307.995575 431.000702,308.044220 431.732513,308.014709 
	C433.177032,307.365570 434.621552,306.716400 436.017090,306.022766 
	C436.017090,306.022766 436.010559,306.088623 436.655762,306.057220 
	C437.125946,305.726044 437.596161,305.394867 438.026978,305.003906 
	C438.026978,305.003906 438.032593,305.075226 438.592377,304.970093 
	C438.768646,304.650055 438.944916,304.330048 439.666565,303.893585 
	C440.106750,303.629700 440.546967,303.365814 441.664062,303.048096 
	C442.928986,302.294769 444.193909,301.541473 445.700989,300.722565 
	C445.700989,300.722565 445.778473,300.483948 446.321930,300.181732 
	C447.216248,299.452515 448.110596,298.723267 448.996338,297.997559 
	C448.996338,297.997559 448.994598,298.006561 449.690399,297.923370 
	C451.482697,296.639465 453.274994,295.355591 455.003387,294.003662 
	C455.003387,294.003662 455.053558,294.082397 455.713776,294.046509 
	C456.497589,293.380737 457.281403,292.714935 458.010956,292.014648 
	C458.010956,292.014648 458.018677,292.078461 458.565857,291.965302 
	C458.737366,291.652008 458.908875,291.338745 459.015106,291.024933 
	C459.015106,291.024933 459.051910,291.078827 459.743011,291.019806 
	C461.505859,289.359467 463.268738,287.699097 465.005524,285.998779 
	C465.005524,285.998779 465.023285,286.039642 465.547272,285.918213 
	C465.713104,285.615906 465.878967,285.313568 465.996735,284.999542 
	C465.996735,284.999542 466.022614,285.041718 466.718811,284.959656 
	C469.823059,281.974213 472.927338,278.988800 475.991272,275.992645 
	C475.991272,275.992645 476.004089,276.032349 476.651611,275.793823 
	C479.473663,272.216003 482.295715,268.638153 485.046326,265.035370 
	C485.046326,265.035370 485.077911,265.104126 485.671082,264.835480 
	C486.134613,263.901215 486.598145,262.966949 487.007751,262.004578 
	C487.007751,262.004578 487.024017,262.063171 487.542908,261.919281 
	C487.713806,261.617828 487.884705,261.316376 488.003479,260.997650 
	C488.003479,260.997650 488.031708,261.044800 488.663696,260.822327 
	C489.145691,259.876648 489.627686,258.930969 490.613708,257.731018 
	C490.739807,257.187653 490.865906,256.644287 491.626038,255.874207 
	C492.106140,254.923981 492.586243,253.973770 493.008026,253.005798 
	C493.008026,253.005798 493.029114,253.062988 493.667938,252.805252 
	C494.460571,251.206207 495.253204,249.607162 495.997162,247.991211 
	C495.997162,247.991211 496.008118,248.041550 496.612854,247.827255 
	C496.790039,247.222977 496.967255,246.618698 497.059540,246.026688 
	C497.059540,246.026688 497.073395,246.111343 497.678253,245.844940 
	C498.144348,244.905975 498.610413,243.967026 499.013824,243.015808 
	C499.013824,243.015808 499.029877,243.077621 499.518005,242.899429 
	C499.614868,242.597580 499.711731,242.295715 499.968597,241.262268 
	C507.962891,223.818649 513.778625,205.906525 512.058533,186.309265 
	C511.938995,184.947266 512.673157,183.510300 513.864624,182.038116 
	C522.444580,182.331741 531.193542,183.842758 539.571167,182.679474 
	C560.565918,179.764221 578.237915,170.234482 592.588074,154.137680 
	C606.578979,138.444000 613.224670,120.161507 613.797668,99.631920 
	C614.078064,89.585670 612.174561,79.642784 608.546631,70.017403 
	C602.358704,53.599976 592.332092,40.035217 578.119507,30.135380 
	C557.619690,15.856090 534.749939,10.916294 510.015747,15.976063 
	C486.238800,20.840002 467.693329,33.250595 454.983032,54.097481 
	C452.334686,58.441181 449.622101,62.745701 446.278290,66.847549 
	C440.138062,63.372005 434.233978,59.362553 427.812561,56.522884 
	C409.896820,48.600182 390.836975,44.871052 371.408142,44.332550 
	C360.022400,44.016972 348.418579,45.240685 337.182922,47.268448 
	C318.647614,50.613625 301.457581,57.927795 285.604370,68.201584 
	C273.631897,75.960442 262.794342,85.085457 254.181931,96.482147 
	C248.424072,104.101471 242.685684,111.934433 238.390198,120.407684 
	C233.446014,130.160522 228.774323,140.425171 226.388779,151.009476 
	C223.209259,165.116425 220.928299,179.494934 222.843567,194.359375 
	C224.474792,207.019379 226.503860,219.500671 231.283600,231.253784 
	C234.461563,239.068207 238.947495,246.409164 243.373093,253.640686 
	C247.503601,260.390076 251.740280,267.234924 256.957550,273.128296 
	C271.858856,289.960724 289.771362,302.782257 310.732605,311.202423 
	C327.374969,317.887604 344.540527,322.164398 362.561310,321.791718 
	C373.586945,321.563660 384.791779,321.633179 395.559875,319.642273 
	C406.608063,317.599548 417.222351,313.210297 428.553589,309.898956 
	C428.728821,309.607635 428.904083,309.316315 429.011719,309.023834 
z"/>
<path fill="#BE1BDA" opacity="1.000000" stroke="none" 
	d="
M440.987152,303.101929 
	C440.546967,303.365814 440.106750,303.629700 439.166199,304.077576 
	C438.454742,304.532776 438.243683,304.803986 438.032593,305.075226 
	C438.032593,305.075226 438.026978,305.003906 437.751038,305.071289 
	C436.986908,305.455322 436.498718,305.771973 436.010559,306.088623 
	C436.010559,306.088623 436.017090,306.022766 435.672729,306.024109 
	C433.885803,306.698395 432.443268,307.371307 431.000702,308.044220 
	C431.000702,308.044220 430.990509,307.995575 430.719025,308.045166 
	C429.971832,308.426788 429.496124,308.758820 429.020416,309.090851 
	C429.020416,309.090851 429.011719,309.023834 428.845093,309.127319 
	C428.442047,309.416260 428.224731,309.622009 428.026550,309.847992 
	C417.222351,313.210297 406.608063,317.599548 395.559875,319.642273 
	C384.791779,321.633179 373.586945,321.563660 362.561310,321.791718 
	C344.540527,322.164398 327.374969,317.887604 310.732605,311.202423 
	C289.771362,302.782257 271.858856,289.960724 256.957550,273.128296 
	C251.740280,267.234924 247.503601,260.390076 243.373093,253.640686 
	C238.947495,246.409164 234.461563,239.068207 231.283600,231.253784 
	C226.503860,219.500671 224.474792,207.019379 222.843567,194.359375 
	C220.928299,179.494934 223.209259,165.116425 226.388779,151.009476 
	C228.774323,140.425171 233.446014,130.160522 238.390198,120.407684 
	C242.685684,111.934433 248.424072,104.101471 254.181931,96.482147 
	C262.794342,85.085457 273.631897,75.960442 285.604370,68.201584 
	C301.457581,57.927795 318.647614,50.613625 337.182922,47.268448 
	C348.418579,45.240685 360.022400,44.016972 371.408142,44.332550 
	C390.836975,44.871052 409.896820,48.600182 427.812561,56.522884 
	C434.233978,59.362553 440.138062,63.372005 446.615662,67.209618 
	C446.969330,67.739052 446.985626,67.906425 446.968964,68.446320 
	C443.738861,76.065552 443.209290,83.720642 442.588745,91.537567 
	C441.776062,101.774017 441.731537,111.699417 445.090759,121.532043 
	C449.911102,135.641251 456.159424,148.737610 467.263672,159.257675 
	C476.327576,167.844727 486.742035,174.029251 498.155151,178.599747 
	C502.526337,180.350220 507.386810,180.878952 512.270508,182.002228 
	C512.516785,182.040039 513.010315,182.108200 513.010315,182.108200 
	C512.673157,183.510300 511.938995,184.947266 512.058533,186.309265 
	C513.778625,205.906525 507.962891,223.818649 499.718811,241.778809 
	C499.240692,242.510117 499.094299,242.770874 499.029877,243.077621 
	C499.029877,243.077621 499.013824,243.015808 498.723022,243.128387 
	C497.979279,244.197754 497.526337,245.154541 497.073395,246.111343 
	C497.073395,246.111343 497.059540,246.026688 496.874664,246.216919 
	C496.462555,246.951950 496.235321,247.496750 496.008118,248.041550 
	C496.008118,248.041550 495.997162,247.991211 495.686035,248.095154 
	C494.592987,249.820404 493.811066,251.441696 493.029114,253.062988 
	C493.029114,253.062988 493.008026,253.005798 492.735474,253.061768 
	C491.972656,254.112137 491.482330,255.106522 490.992004,256.100922 
	C490.865906,256.644287 490.739807,257.187653 490.034576,257.957458 
	C488.980865,259.137512 488.506256,260.091156 488.031677,261.044800 
	C488.031708,261.044800 488.003479,260.997650 487.803925,261.122192 
	C487.410919,261.518860 487.217468,261.791016 487.024017,262.063171 
	C487.024017,262.063171 487.007751,262.004578 486.715759,262.126892 
	C485.975159,263.200867 485.526520,264.152496 485.077911,265.104126 
	C485.077911,265.104126 485.046326,265.035370 484.735718,265.111816 
	C480.194275,267.697296 476.040497,270.266144 476.004089,276.032349 
	C476.004089,276.032349 475.991272,275.992645 475.648682,276.003174 
	C472.211609,279.023041 469.117126,282.032379 466.022614,285.041718 
	C466.022614,285.041718 465.996735,284.999542 465.800049,285.121765 
	C465.325684,285.447693 465.132324,285.712921 465.023285,286.039642 
	C465.023285,286.039642 465.005524,285.998779 464.655640,286.011536 
	C462.554474,287.709137 460.803192,289.393982 459.051910,291.078827 
	C459.051910,291.078827 459.015106,291.024933 458.825378,291.150787 
	C458.429993,291.543915 458.224335,291.811188 458.018677,292.078461 
	C458.018677,292.078461 458.010956,292.014648 457.698425,292.038788 
	C456.608459,292.736084 455.831024,293.409241 455.053589,294.082397 
	C455.053558,294.082397 455.003387,294.003662 454.666687,294.037781 
	C452.551514,295.383453 450.773071,296.695007 448.994598,298.006561 
	C448.994598,298.006561 448.996338,297.997559 448.631531,297.992798 
	C447.437317,298.820007 446.607880,299.651978 445.778442,300.483948 
	C445.778473,300.483948 445.700989,300.722565 445.231079,300.638855 
	C443.503174,301.404083 442.245148,302.252991 440.987152,303.101929 
z"/>
<path fill="#AD45BE" opacity="1.000000" stroke="none" 
	d="
M447.001892,68.073792 
	C446.985626,67.906425 446.969330,67.739052 446.946106,67.319977 
	C449.622101,62.745701 452.334686,58.441181 454.983032,54.097481 
	C467.693329,33.250595 486.238800,20.840002 510.015747,15.976063 
	C534.749939,10.916294 557.619690,15.856090 578.119507,30.135380 
	C592.332092,40.035217 602.358704,53.599976 608.546631,70.017403 
	C612.174561,79.642784 614.078064,89.585670 613.797668,99.631920 
	C613.224670,120.161507 606.578979,138.444000 592.588074,154.137680 
	C578.237915,170.234482 560.565918,179.764221 539.571167,182.679474 
	C531.193542,183.842758 522.444580,182.331741 513.437500,182.073151 
	C513.010315,182.108200 512.516785,182.040039 512.269836,181.635712 
	C512.015686,180.496521 512.008484,179.761642 512.216858,178.690735 
	C512.598877,176.882843 513.129822,175.343964 512.873474,173.949829 
	C510.924591,163.351242 509.802704,152.470520 506.572784,142.263245 
	C498.623810,117.142838 483.994232,96.181732 463.944824,78.643021 
	C462.220825,76.899559 460.579224,75.484802 458.707397,74.050385 
	C458.477203,74.030739 458.017242,73.986908 457.936218,73.667130 
	C456.883087,72.588890 455.911011,71.830421 454.621399,71.037537 
	C453.548859,70.653084 452.793793,70.303062 451.883545,69.632629 
	C450.152832,68.899414 448.577362,68.486603 447.001892,68.073792 
z"/>
<path fill="#A732BD" opacity="1.000000" stroke="none" 
	d="
M476.327850,275.913086 
	C476.040497,270.266144 480.194275,267.697296 484.771423,265.124298 
	C482.295715,268.638153 479.473663,272.216003 476.327850,275.913086 
z"/>
<path fill="#A732BD" opacity="1.000000" stroke="none" 
	d="
M466.370728,285.000671 
	C469.117126,282.032379 472.211609,279.023041 475.668884,276.008545 
	C472.927338,278.988800 469.823059,281.974213 466.370728,285.000671 
z"/>
<path fill="#A732BD" opacity="1.000000" stroke="none" 
	d="
M459.397461,291.049316 
	C460.803192,289.393982 462.554474,287.709137 464.668671,286.031525 
	C463.268738,287.699097 461.505859,289.359467 459.397461,291.049316 
z"/>
<path fill="#A732BD" opacity="1.000000" stroke="none" 
	d="
M449.342499,297.964966 
	C450.773071,296.695007 452.551514,295.383453 454.698639,294.071808 
	C453.274994,295.355591 451.482697,296.639465 449.342499,297.964966 
z"/>
<path fill="#A732BD" opacity="1.000000" stroke="none" 
	d="
M493.348511,252.934113 
	C493.811066,251.441696 494.592987,249.820404 495.710388,248.103607 
	C495.253204,249.607162 494.460571,251.206207 493.348511,252.934113 
z"/>
<path fill="#A732BD" opacity="1.000000" stroke="none" 
	d="
M441.325623,303.075012 
	C442.245148,302.252991 443.503174,301.404083 445.110016,300.671692 
	C444.193909,301.541473 442.928986,302.294769 441.325623,303.075012 
z"/>
<path fill="#A732BD" opacity="1.000000" stroke="none" 
	d="
M446.050171,300.332825 
	C446.607880,299.651978 447.437317,298.820007 448.635803,297.991028 
	C448.110596,298.723267 447.216248,299.452515 446.050171,300.332825 
z"/>
<path fill="#A732BD" opacity="1.000000" stroke="none" 
	d="
M491.309021,255.987564 
	C491.482330,255.106522 491.972656,254.112137 492.764648,253.070648 
	C492.586243,253.973770 492.106140,254.923981 491.309021,255.987564 
z"/>
<path fill="#A732BD" opacity="1.000000" stroke="none" 
	d="
M431.366608,308.029480 
	C432.443268,307.371307 433.885803,306.698395 435.697205,306.046387 
	C434.621552,306.716400 433.177032,307.365570 431.366608,308.029480 
z"/>
<path fill="#A732BD" opacity="1.000000" stroke="none" 
	d="
M455.383667,294.064453 
	C455.831024,293.409241 456.608459,292.736084 457.725555,292.056030 
	C457.281403,292.714935 456.497589,293.380737 455.383667,294.064453 
z"/>
<path fill="#A732BD" opacity="1.000000" stroke="none" 
	d="
M485.374512,264.969788 
	C485.526520,264.152496 485.975159,263.200867 486.742737,262.140961 
	C486.598145,262.966949 486.134613,263.901215 485.374512,264.969788 
z"/>
<path fill="#A732BD" opacity="1.000000" stroke="none" 
	d="
M488.347687,260.933563 
	C488.506256,260.091156 488.980865,259.137512 489.782593,258.084595 
	C489.627686,258.930969 489.145691,259.876648 488.347687,260.933563 
z"/>
<path fill="#A732BD" opacity="1.000000" stroke="none" 
	d="
M497.375824,245.978149 
	C497.526337,245.154541 497.979279,244.197754 498.754395,243.134521 
	C498.610413,243.967026 498.144348,244.905975 497.375824,245.978149 
z"/>
<path fill="#A732BD" opacity="1.000000" stroke="none" 
	d="
M496.310486,247.934402 
	C496.235321,247.496750 496.462555,246.951950 496.917114,246.210785 
	C496.967255,246.618698 496.790039,247.222977 496.310486,247.934402 
z"/>
<path fill="#A732BD" opacity="1.000000" stroke="none" 
	d="
M436.333160,306.072937 
	C436.498718,305.771973 436.986908,305.455322 437.770721,305.101196 
	C437.596161,305.394867 437.125946,305.726044 436.333160,306.072937 
z"/>
<path fill="#A732BD" opacity="1.000000" stroke="none" 
	d="
M429.330658,309.039246 
	C429.496124,308.758820 429.971832,308.426788 430.742371,308.053650 
	C430.571747,308.337616 430.106323,308.662659 429.330658,309.039246 
z"/>
<path fill="#A732BD" opacity="1.000000" stroke="none" 
	d="
M465.285278,285.978943 
	C465.132324,285.712921 465.325684,285.447693 465.824097,285.127625 
	C465.878967,285.313568 465.713104,285.615906 465.285278,285.978943 
z"/>
<path fill="#A732BD" opacity="1.000000" stroke="none" 
	d="
M458.292267,292.021881 
	C458.224335,291.811188 458.429993,291.543915 458.858032,291.151062 
	C458.908875,291.338745 458.737366,291.652008 458.292267,292.021881 
z"/>
<path fill="#A732BD" opacity="1.000000" stroke="none" 
	d="
M487.283447,261.991211 
	C487.217468,261.791016 487.410919,261.518860 487.830017,261.130829 
	C487.884705,261.316376 487.713806,261.617828 487.283447,261.991211 
z"/>
<path fill="#A732BD" opacity="1.000000" stroke="none" 
	d="
M438.312500,305.022644 
	C438.243683,304.803986 438.454742,304.532776 438.893494,304.135773 
	C438.944916,304.330048 438.768646,304.650055 438.312500,305.022644 
z"/>
<path fill="#A732BD" opacity="1.000000" stroke="none" 
	d="
M499.273926,242.988525 
	C499.094299,242.770874 499.240692,242.510117 499.638794,242.144608 
	C499.711731,242.295715 499.614868,242.597580 499.273926,242.988525 
z"/>
<path fill="#A732BD" opacity="1.000000" stroke="none" 
	d="
M428.290070,309.873474 
	C428.224731,309.622009 428.442047,309.416260 428.878906,309.127869 
	C428.904083,309.316315 428.728821,309.607635 428.290070,309.873474 
z"/>
<path fill="#B833CF" opacity="1.000000" stroke="none" 
	d="
M446.968964,68.446320 
	C448.577362,68.486603 450.152832,68.899414 451.516785,69.695526 
	C450.525879,71.019783 449.359222,71.840897 449.025421,72.919701 
	C444.323792,88.114731 443.456696,103.346573 447.685364,118.919319 
	C450.333862,128.672791 454.258270,137.639832 460.283569,145.676865 
	C467.011658,154.651352 475.240173,162.110779 484.656036,168.130432 
	C493.029907,173.483856 501.840820,178.023529 512.001221,179.026779 
	C512.008484,179.761642 512.015686,180.496521 512.023560,181.597900 
	C507.386810,180.878952 502.526337,180.350220 498.155151,178.599747 
	C486.742035,174.029251 476.327576,167.844727 467.263672,159.257675 
	C456.159424,148.737610 449.911102,135.641251 445.090759,121.532043 
	C441.731537,111.699417 441.776062,101.774017 442.588745,91.537567 
	C443.209290,83.720642 443.738861,76.065552 446.968964,68.446320 
z"/>
<path fill="#BD1BDA" opacity="1.000000" stroke="none" 
	d="
M512.216858,178.690735 
	C501.840820,178.023529 493.029907,173.483856 484.656036,168.130432 
	C475.240173,162.110779 467.011658,154.651352 460.283569,145.676865 
	C454.258270,137.639832 450.333862,128.672791 447.685364,118.919319 
	C443.456696,103.346573 444.323792,88.114731 449.025421,72.919701 
	C449.359222,71.840897 450.525879,71.019783 451.671997,70.015945 
	C452.793793,70.303062 453.548859,70.653084 454.714966,71.348213 
	C456.089752,72.457848 457.053497,73.222382 458.017242,73.986916 
	C458.017242,73.986908 458.477203,74.030739 458.799347,74.373169 
	C460.756714,76.134308 462.391937,77.553017 464.027191,78.971725 
	C483.994232,96.181732 498.623810,117.142838 506.572784,142.263245 
	C509.802704,152.470520 510.924591,163.351242 512.873474,173.949829 
	C513.129822,175.343964 512.598877,176.882843 512.216858,178.690735 
z"/>
<path fill="#B833CF" opacity="1.000000" stroke="none" 
	d="
M463.944824,78.643021 
	C462.391937,77.553017 460.756714,76.134308 459.029541,74.392822 
	C460.579224,75.484802 462.220825,76.899559 463.944824,78.643021 
z"/>
<path fill="#B833CF" opacity="1.000000" stroke="none" 
	d="
M457.936218,73.667145 
	C457.053497,73.222382 456.089752,72.457848 455.032471,71.382637 
	C455.911011,71.830421 456.883087,72.588890 457.936218,73.667145 
z"/>
</svg>